<svg xmlns="http://www.w3.org/2000/svg" xmlns:xlink="http://www.w3.org/1999/xlink" width="24.656" height="24.654" viewBox="0 0 24.656 24.654">
  <defs>
    <linearGradient id="linear-gradient" x1="0.046" y1="0.5" x2="0.951" y2="0.5" gradientUnits="objectBoundingBox">
      <stop offset="0" stop-color="#efbd58"/>
      <stop offset="0.489" stop-color="#e45881"/>
      <stop offset="1" stop-color="#6080ea"/>
    </linearGradient>
  </defs>
  <path id="Intersection_39" data-name="Intersection 39" d="M-8543.381,8386.979a2.076,2.076,0,0,1-1.088-.308l-.058-.043a15.573,15.573,0,0,1-2.556-3.084c-.3-.438-.789-1.216-1.181-1.766a10.667,10.667,0,0,1-6.171,1.955,10.705,10.705,0,0,1-10.7-10.705,10.7,10.7,0,0,1,10.7-10.7,10.705,10.705,0,0,1,10.707,10.7,10.665,10.665,0,0,1-1.96,6.175c.551.392,1.33.88,1.769,1.184a15.623,15.623,0,0,1,3.086,2.551l.043.06a2.287,2.287,0,0,1-.313,2.7l-.016.015-.647.646a2.378,2.378,0,0,1-1.6.619Zm-14.083-21.263a7.913,7.913,0,0,0-4.729,8.854,7.911,7.911,0,0,0,7.76,6.371,7.875,7.875,0,0,0,5.6-2.318,7.912,7.912,0,0,0,.982-9.993,7.908,7.908,0,0,0-6.581-3.517A7.945,7.945,0,0,0-8557.464,8365.717Zm-1.608,11.954a7,7,0,0,1-.579-.66c.007-.112.016-.241.03-.39v-.013a1.917,1.917,0,0,1,.56-1.166,1.975,1.975,0,0,1,1.172-.565c.649-.068,2.628-.105,3.633-.105s2.619.037,3.269.105a1.986,1.986,0,0,1,1.173.565,1.945,1.945,0,0,1,.559,1.166l0,.013c.015.153.025.286.034.4a7.215,7.215,0,0,1-.57.649,6.54,6.54,0,0,1-4.642,1.923A6.539,6.539,0,0,1-8559.072,8377.671Zm1.5-6.8a3.141,3.141,0,0,1,3.142-3.142,3.141,3.141,0,0,1,3.143,3.142,3.142,3.142,0,0,1-3.143,3.143A3.141,3.141,0,0,1-8557.575,8370.874Z" transform="translate(8565.138 -8362.325)" fill="url(#linear-gradient)"/>
</svg>
